VIEWPORT
  5
318
330
1A
100
AcDbEntity
 67
     1
  8
0
100
AcDbViewport
 10
3.851167961770503
 20
5.600301840020266
 30
0.0
 40
18.11915737223922
 41
9.895696154436839
 68
     1
 69
     1
 12
3.851167961770503
 22
5.600301840020266
 13
0.0
 23
0.0
 14
10.0
 24
10.0
 15
10.0
 25
10.0
 16
0.0
 26
0.0
 36
1.0
 17
0.0
 27
0.0
 37
0.0
 42
50.0
 43
0.0
 44
0.0
 45
9.895696154436839
 50
0.0
 51
0.0
 72
   100
 90
    32800
  1

281
     0
 71
     1
 74
     0
110
0.0
120
0.0
130
0.0
111
1.0
121
0.0
131
0.0
112
0.0
122
1.0
132
0.0
 79
     0
146
0.0
  0
VIEWPORT
  5
31A
330
1A
100
AcDbEntity
 67
     1
  8
0
100
AcDbViewport
 10
3.840416801257396
 20
5.583750441318421
 30
0.0
 40
6.144666882011834
 41
8.934000706109474
 68
     2
 69
     2
 12
850.0000039581211
 22
1313.000006114132
 13
0.0
 23
0.0
 14
1.0
 24
1.0
 15
0.0
 25
0.0
 16
0.0
 26
0.0
 36
1.0
 17
0.0
 27
0.0
 37
0.0
 42
50.0
 43
0.0
 44
0.0
 45
2669.687796745701
 50
0.0
 51
0.0
 72
   100
 90
    32768
  1

281
     0
 71
     1
 74
     0
110
0.0
120
0.0
130
0.0
111
1.0
121
0.0
131
0.0
112
0.0
122
1.0
132
0.0
 79
     0
146
0.0
  0
ENDSEC
  0
SECTION
  2
OBJECTS
  0
DICTIONARY
  5
C
330
0
100
AcDbDictionary
281
     1
  3
ACAD_GROUP
350
D
  3
ACAD_LAYOUT
350
19
  3
ACAD_MLINESTYLE
350
16
  3
ACAD_PLOTSETTINGS
350
18
  3
ACAD_PLOTSTYLENAME
350
E
  3
AcDbVariableDictionary
350
31C
  0
DICTIONARY
  5
D
102
{ACAD_REACTORS
330
C
102
}
330
C
100
AcDbDictionary
281
     1
  0
DICTIONARY
  5
19
102
{ACAD_REACTORS
330
C
102
}
330
C
100
AcDbDictionary
281
     1
  3
Layout1
350
1D
  3
Model
350
21
  0
DICTIONARY
  5
16
102
{ACAD_REACTORS
330
C
102
}
330
C
100
AcDbDictionary
281
     1
  3
Standard
350
17
  0
DICTIONARY
  5
18
102
{ACAD_REACTORS
330
C
102
}
330
C
100
AcDbDictionary
281
     1
  0
ACDBDICTIONARYWDFLT
  5
E
102
{ACAD_REACTORS
330
C
102
}
330
C
100
AcDbDictionary
281
     1
  3
Normal
350
F
100
AcDbDictionaryWithDefault
340
F
  0
DICTIONARY
  5
31C
102
{ACAD_REACTORS
330
C
102
}
330
C
100
AcDbDictionary
281
     1
  3
DIMASSOC
350
31D
  0
LAYOUT
  5
1D
102
{ACAD_REACTORS
330
19
102
}
330
19
100
AcDbPlotSettings
  1

  2
HP LaserJet 4L
  4
A4
  6

 40
7.143749713897705
 41
6.127734661102294
 42
7.821075439453125
 43
7.14373779296875
 44
210.0579986572264
 45
296.9259948730469
 46
0.0
 47
0.0
 48
0.0
 49
0.0
140
0.0
141
0.0
142
1.0
143
0.8001035190195
 70
   688
 72
     0
 73
     0
 74
     1
  7

 75
     0
147
1.249838272459375
148
-19.50133355213457
149
-28.36472210933504
100
AcDbLayout
  1
Layout1
 70
     1
 71
     1
 10
0.5427399317736416
 20
0.9236968521011551
 11
7.159595991767357
 21
10.27690682793935
 12
0.0
 22
0.0
 32
0.0
 14
0.7680833602514792
 24
1.116750088263684
 34
0.0
 15
6.912750242263313
 25
10.05075079437315
 35
0.0
146
0.0
 13
0.0
 23
0.0
 33
0.0
 16
1.0
 26
0.0
 36
0.0
 17
0.0
 27
1.0
 37
0.0
 76
     0
330
1A
331
318
  0
LAYOUT
  5
21
102
{ACAD_REACTORS
330
19
102
}
330
19
100
AcDbPlotSettings
  1

  2
HP LaserJet 4L
  4
A4
  6

 40
7.143749713897705
 41
6.127734661102294
 42
7.821075439453125
 43
7.14373779296875
 44
210.0579986572264
 45
296.9259948730469
 46
0.0
 47
0.0
 48
0.0
 49
0.0
140
0.0
141
0.0
142
1.0
143
1.0
 70
 11952
 72
     0
 73
     1
 74
     0
  7

 75
     0
147
1.0
148
12157.22619047618
149
397.0261904761883
100
AcDbLayout
  1
Model
 70
     1
 71
     0
 10
0.0
 20
0.0
 11
12.0
 21
9.0
 12
0.0
 22
0.0
 32
0.0
 14
0.0
 24
0.0
 34
0.0
 15
0.0
 25
0.0
 35
0.0
146
0.0
 13
0.0
 23
0.0
 33
0.0
 16
1.0
 26
0.0
 36
0.0
 17
0.0
 27
1.0
 37
0.0
 76
     0
330
1E
  0
MLINESTYLE
  5
17
102
{ACAD_REACTORS
330
16
102
}
330
16
100
AcDbMlineStyle
  2
STANDARD
 70
     0
  3

 62
   256
 51
90.0
 52
90.0
 71
     2
 49
0.5
 62
   256
  6
BYLAYER
 49
-0.5
 62
   256
  6
BYLAYER
  0
ACDBPLACEHOLDER
  5
F
102
{ACAD_REACTORS
330
E
102
}
330
E
  0
DICTIONARYVAR
  5
31D
102
{ACAD_REACTORS
330
31C
102
}
330
31C
100
DictionaryVariables
280
     0
  1
1
  0
ENDSEC
  0
EOF
-999