<?xml version="1.0" encoding="UTF-8" standalone="no"?>
<!DOCTYPE svg PUBLIC "-//W3C//DTD SVG 1.1//EN"
 "http://www.w3.org/Graphics/SVG/1.1/DTD/svg11.dtd">
<!-- Generated by graphviz version 2.42.4 (0)
 -->
<!-- Title: G Pages: 1 -->
<svg width="677pt" height="341pt"
 viewBox="0.00 0.00 676.60 340.60" xmlns="http://www.w3.org/2000/svg" xmlns:xlink="http://www.w3.org/1999/xlink">
<g id="graph0" class="graph" transform="scale(1 1) rotate(0) translate(10.8 329.8)">
<title>G</title>
<!-- form -->
<g id="node1" class="node">
<title>form</title>
<polygon fill="#eef2f5" stroke="transparent" points="0,0 0,-319 655,-319 655,0 0,0"/>
<text text-anchor="start" x="250.5" y="-301.3" font-family="Arial" font-weight="bold" font-size="14.00">Dati del fascio e dei tubi</text>
<text text-anchor="start" x="7.5" y="-272.3" font-family="Arial" font-size="14.00">Numero tubi</text>
<polygon fill="white" stroke="transparent" points="266.5,-261.5 266.5,-290.5 654.5,-290.5 654.5,-261.5 266.5,-261.5"/>
<polygon fill="none" stroke="black" points="266.5,-261.5 266.5,-290.5 654.5,-290.5 654.5,-261.5 266.5,-261.5"/>
<text text-anchor="start" x="418" y="-273.3" font-family="Arial" font-weight="bold" font-size="14.00">ntubi = dt(11)</text>
<text text-anchor="start" x="7.5" y="-243.3" font-family="Arial" font-size="14.00">Tipo passo / tracciatura / fascio</text>
<polygon fill="white" stroke="transparent" points="266.5,-232.5 266.5,-261.5 654.5,-261.5 654.5,-232.5 266.5,-232.5"/>
<polygon fill="none" stroke="black" points="266.5,-232.5 266.5,-261.5 654.5,-261.5 654.5,-232.5 266.5,-232.5"/>
<text text-anchor="start" x="273.5" y="-244.3" font-family="Arial" font-weight="bold" font-size="14.00">TipoPasso=dt(12); PassoFascio=dt(13); TipoFascio=dt(14)</text>
<text text-anchor="start" x="7.5" y="-214.3" font-family="Arial" font-size="14.00">Diametro esterno tubo [mm]</text>
<polygon fill="white" stroke="transparent" points="266.5,-203.5 266.5,-232.5 654.5,-232.5 654.5,-203.5 266.5,-203.5"/>
<polygon fill="none" stroke="black" points="266.5,-203.5 266.5,-232.5 654.5,-232.5 654.5,-203.5 266.5,-203.5"/>
<text text-anchor="start" x="415" y="-215.3" font-family="Arial" font-weight="bold" font-size="14.00">dtubo = dt(15)</text>
<text text-anchor="start" x="7.5" y="-185.3" font-family="Arial" font-size="14.00">Passo tubi [mm]</text>
<polygon fill="white" stroke="transparent" points="266.5,-174.5 266.5,-203.5 654.5,-203.5 654.5,-174.5 266.5,-174.5"/>
<polygon fill="none" stroke="black" points="266.5,-174.5 266.5,-203.5 654.5,-203.5 654.5,-174.5 266.5,-174.5"/>
<text text-anchor="start" x="414" y="-186.3" font-family="Arial" font-weight="bold" font-size="14.00">Passo = dt(16)</text>
<text text-anchor="start" x="7.5" y="-156.3" font-family="Arial" font-size="14.00">Passo diaframmi / primo diaframma [mm]</text>
<polygon fill="white" stroke="transparent" points="266.5,-145.5 266.5,-174.5 654.5,-174.5 654.5,-145.5 266.5,-145.5"/>
<polygon fill="none" stroke="black" points="266.5,-145.5 266.5,-174.5 654.5,-174.5 654.5,-145.5 266.5,-145.5"/>
<text text-anchor="start" x="387" y="-157.3" font-family="Arial" font-weight="bold" font-size="14.00">pdiaf=dt(17); p1=dt(18)</text>
<text text-anchor="start" x="7.5" y="-127.3" font-family="Arial" font-size="14.00">Materiale tubo</text>
<polygon fill="white" stroke="transparent" points="266.5,-116.5 266.5,-145.5 654.5,-145.5 654.5,-116.5 266.5,-116.5"/>
<polygon fill="none" stroke="black" points="266.5,-116.5 266.5,-145.5 654.5,-145.5 654.5,-116.5 266.5,-116.5"/>
<text text-anchor="start" x="413.5" y="-128.3" font-family="Arial" font-weight="bold" font-size="14.00">matub = dt(19)</text>
<text text-anchor="start" x="7.5" y="-98.3" font-family="Arial" font-size="14.00">Raggio tubi U [mm]</text>
<polygon fill="white" stroke="transparent" points="266.5,-87.5 266.5,-116.5 654.5,-116.5 654.5,-87.5 266.5,-87.5"/>
<polygon fill="none" stroke="black" points="266.5,-87.5 266.5,-116.5 654.5,-116.5 654.5,-87.5 266.5,-87.5"/>
<text text-anchor="start" x="417.5" y="-99.3" font-family="Arial" font-weight="bold" font-size="14.00">radiu = dt(21)</text>
<text text-anchor="start" x="7.5" y="-69.3" font-family="Arial" font-size="14.00">Passo iterazioni [mm]</text>
<polygon fill="white" stroke="transparent" points="266.5,-58.5 266.5,-87.5 654.5,-87.5 654.5,-58.5 266.5,-58.5"/>
<polygon fill="none" stroke="black" points="266.5,-58.5 266.5,-87.5 654.5,-87.5 654.5,-58.5 266.5,-58.5"/>
<text text-anchor="start" x="367.5" y="-70.3" font-family="Arial" font-weight="bold" font-size="14.00">IncrementoDiametro = dt(22)</text>
<text text-anchor="start" x="7.5" y="-40.3" font-family="Arial" font-size="14.00">Cava / spessore / BWG / lunghezza</text>
<polygon fill="white" stroke="transparent" points="266.5,-29.5 266.5,-58.5 654.5,-58.5 654.5,-29.5 266.5,-29.5"/>
<polygon fill="none" stroke="black" points="266.5,-29.5 266.5,-58.5 654.5,-58.5 654.5,-29.5 266.5,-29.5"/>
<text text-anchor="start" x="278.5" y="-41.3" font-family="Arial" font-weight="bold" font-size="14.00">tcava=dt(23); Spmm=dt(24); Spbwg=dt(25); Tublu=dt(26)</text>
<text text-anchor="start" x="7.5" y="-11.3" font-family="Arial" font-size="14.00">Tolleranza / giunto tubo&#45;piastra</text>
<polygon fill="white" stroke="transparent" points="266.5,-0.5 266.5,-29.5 654.5,-29.5 654.5,-0.5 266.5,-0.5"/>
<polygon fill="none" stroke="black" points="266.5,-0.5 266.5,-29.5 654.5,-29.5 654.5,-0.5 266.5,-0.5"/>
<text text-anchor="start" x="327.5" y="-12.3" font-family="Arial" font-weight="bold" font-size="14.00">TipoTolleranza=dt(27); TipoGiunto=dt(28)</text>
<polygon fill="none" stroke="black" points="0,0 0,-319 655,-319 655,0 0,0"/>
</g>
</g>
</svg>
