<?xml version="1.0" encoding="UTF-8" standalone="no"?>
<!DOCTYPE svg PUBLIC "-//W3C//DTD SVG 1.1//EN"
 "http://www.w3.org/Graphics/SVG/1.1/DTD/svg11.dtd">
<!-- Generated by graphviz version 2.42.4 (0)
 -->
<!-- Title: G Pages: 1 -->
<svg width="1203pt" height="137pt"
 viewBox="0.00 0.00 1202.80 136.80" xmlns="http://www.w3.org/2000/svg" xmlns:xlink="http://www.w3.org/1999/xlink">
<g id="graph0" class="graph" transform="scale(1 1) rotate(0) translate(14.4 122.4)">
<title>G</title>
<!-- input -->
<g id="node1" class="node">
<title>input</title>
<path fill="#eef5ff" stroke="#315b8a" d="M113,-40C113,-40 12,-40 12,-40 6,-40 0,-34 0,-28 0,-28 0,-16 0,-16 0,-10 6,-4 12,-4 12,-4 113,-4 113,-4 119,-4 125,-10 125,-16 125,-16 125,-28 125,-28 125,-34 119,-40 113,-40"/>
<text text-anchor="middle" x="62.5" y="-25" font-family="Arial" font-size="10.00">Fori I/E + vincoli</text>
<text text-anchor="middle" x="62.5" y="-14" font-family="Arial" font-size="10.00">verso + finestra accesso</text>
</g>
<!-- candidates -->
<g id="node2" class="node">
<title>candidates</title>
<path fill="#eef5ff" stroke="#315b8a" d="M264,-40C264,-40 174,-40 174,-40 168,-40 162,-34 162,-28 162,-28 162,-16 162,-16 162,-10 168,-4 174,-4 174,-4 264,-4 264,-4 270,-4 276,-10 276,-16 276,-16 276,-28 276,-28 276,-34 270,-40 264,-40"/>
<text text-anchor="middle" x="219" y="-25" font-family="Arial" font-size="10.00">Grafo bipartito sparso</text>
<text text-anchor="middle" x="219" y="-14" font-family="Arial" font-size="10.00">K candidati per interno</text>
</g>
<!-- input&#45;&gt;candidates -->
<g id="edge1" class="edge">
<title>input&#45;&gt;candidates</title>
<path fill="none" stroke="#52677d" d="M125.01,-22C133.72,-22 142.7,-22 151.5,-22"/>
<polygon fill="#52677d" stroke="#52677d" points="151.72,-25.5 161.72,-22 151.72,-18.5 151.72,-25.5"/>
</g>
<!-- match -->
<g id="node3" class="node">
<title>match</title>
<path fill="#eef5ff" stroke="#315b8a" d="M443,-81C443,-81 325,-81 325,-81 319,-81 313,-75 313,-69 313,-69 313,-57 313,-57 313,-51 319,-45 325,-45 325,-45 443,-45 443,-45 449,-45 455,-51 455,-57 455,-57 455,-69 455,-69 455,-75 449,-81 443,-81"/>
<text text-anchor="middle" x="384" y="-66" font-family="Arial" font-size="10.00">Matching min&#45;cost / CP&#45;SAT</text>
<text text-anchor="middle" x="384" y="-55" font-family="Arial" font-size="10.00">coppie uno&#45;a&#45;uno</text>
</g>
<!-- candidates&#45;&gt;match -->
<g id="edge2" class="edge">
<title>candidates&#45;&gt;match</title>
<path fill="none" stroke="#52677d" d="M276.1,-36.11C284.82,-38.3 293.98,-40.61 303.1,-42.9"/>
<polygon fill="#52677d" stroke="#52677d" points="302.43,-46.34 312.98,-45.39 304.13,-39.55 302.43,-46.34"/>
</g>
<!-- geometry -->
<g id="node4" class="node">
<title>geometry</title>
<path fill="#eef5ff" stroke="#315b8a" d="M606,-81C606,-81 504,-81 504,-81 498,-81 492,-75 492,-69 492,-69 492,-57 492,-57 492,-51 498,-45 504,-45 504,-45 606,-45 606,-45 612,-45 618,-51 618,-57 618,-57 618,-69 618,-69 618,-75 612,-81 606,-81"/>
<text text-anchor="middle" x="555" y="-66" font-family="Arial" font-size="10.00">Verifica geometrica</text>
<text text-anchor="middle" x="555" y="-55" font-family="Arial" font-size="10.00">clearance, incroci, centro</text>
</g>
<!-- match&#45;&gt;geometry -->
<g id="edge3" class="edge">
<title>match&#45;&gt;geometry</title>
<path fill="none" stroke="#52677d" d="M455.2,-63C463.94,-63 472.88,-63 481.65,-63"/>
<polygon fill="#52677d" stroke="#52677d" points="481.83,-66.5 491.83,-63 481.83,-59.5 481.83,-66.5"/>
</g>
<!-- cuts -->
<g id="node5" class="node">
<title>cuts</title>
<path fill="#fff7d6" stroke="#315b8a" d="M811,-36C811,-36 714,-36 714,-36 708,-36 702,-30 702,-24 702,-24 702,-12 702,-12 702,-6 708,0 714,0 714,0 811,0 811,0 817,0 823,-6 823,-12 823,-12 823,-24 823,-24 823,-30 817,-36 811,-36"/>
<text text-anchor="middle" x="762.5" y="-15.5" font-family="Arial" font-size="10.00">Aggiunge cut / amplia K</text>
</g>
<!-- geometry&#45;&gt;cuts -->
<g id="edge4" class="edge">
<title>geometry&#45;&gt;cuts</title>
<path fill="none" stroke="#52677d" d="M618.21,-49.38C641.47,-44.28 668.03,-38.47 691.91,-33.24"/>
<polygon fill="#52677d" stroke="#52677d" points="692.94,-36.6 701.96,-31.04 691.45,-29.76 692.94,-36.6"/>
<text text-anchor="middle" x="660" y="-46.8" font-family="Arial" font-size="9.00">non fattibile</text>
</g>
<!-- order -->
<g id="node6" class="node">
<title>order</title>
<path fill="#eef5ff" stroke="#315b8a" d="M808,-108C808,-108 717,-108 717,-108 711,-108 705,-102 705,-96 705,-96 705,-84 705,-84 705,-78 711,-72 717,-72 717,-72 808,-72 808,-72 814,-72 820,-78 820,-84 820,-84 820,-96 820,-96 820,-102 814,-108 808,-108"/>
<text text-anchor="middle" x="762.5" y="-93" font-family="Arial" font-size="10.00">A* / beam search</text>
<text text-anchor="middle" x="762.5" y="-82" font-family="Arial" font-size="10.00">sequenza CW o CCW</text>
</g>
<!-- geometry&#45;&gt;order -->
<g id="edge6" class="edge">
<title>geometry&#45;&gt;order</title>
<path fill="none" stroke="#52677d" d="M618.21,-71.17C642.41,-74.35 670.17,-78 694.77,-81.23"/>
<polygon fill="#52677d" stroke="#52677d" points="694.38,-84.71 704.75,-82.54 695.29,-77.77 694.38,-84.71"/>
<text text-anchor="middle" x="660" y="-81.8" font-family="Arial" font-size="9.00">fattibile</text>
</g>
<!-- cuts&#45;&gt;candidates -->
<g id="edge5" class="edge">
<title>cuts&#45;&gt;candidates</title>
<path fill="none" stroke="#52677d" d="M701.86,-18.44C599.91,-19.19 392.88,-20.72 286.45,-21.51"/>
<polygon fill="#52677d" stroke="#52677d" points="286.14,-18.01 276.16,-21.59 286.19,-25.01 286.14,-18.01"/>
</g>
<!-- access -->
<g id="node7" class="node">
<title>access</title>
<path fill="#eef5ff" stroke="#315b8a" d="M979,-108C979,-108 872,-108 872,-108 866,-108 860,-102 860,-96 860,-96 860,-84 860,-84 860,-78 866,-72 872,-72 872,-72 979,-72 979,-72 985,-72 991,-78 991,-84 991,-84 991,-96 991,-96 991,-102 985,-108 979,-108"/>
<text text-anchor="middle" x="925.5" y="-93" font-family="Arial" font-size="10.00">Pathfinding utensile/sonda</text>
<text text-anchor="middle" x="925.5" y="-82" font-family="Arial" font-size="10.00">finestra libera</text>
</g>
<!-- order&#45;&gt;access -->
<g id="edge7" class="edge">
<title>order&#45;&gt;access</title>
<path fill="none" stroke="#52677d" d="M820.26,-90C829.74,-90 839.69,-90 849.54,-90"/>
<polygon fill="#52677d" stroke="#52677d" points="849.73,-93.5 859.73,-90 849.73,-86.5 849.73,-93.5"/>
</g>
<!-- result -->
<g id="node8" class="node">
<title>result</title>
<path fill="#e6f7ee" stroke="#315b8a" d="M1162,-108C1162,-108 1040,-108 1040,-108 1034,-108 1028,-102 1028,-96 1028,-96 1028,-84 1028,-84 1028,-78 1034,-72 1040,-72 1040,-72 1162,-72 1162,-72 1168,-72 1174,-78 1174,-84 1174,-84 1174,-96 1174,-96 1174,-102 1168,-108 1162,-108"/>
<text text-anchor="middle" x="1101" y="-93" font-family="Arial" font-size="10.00">Soluzione verificata</text>
<text text-anchor="middle" x="1101" y="-82" font-family="Arial" font-size="10.00">.COO + sequenza + metriche</text>
</g>
<!-- access&#45;&gt;result -->
<g id="edge8" class="edge">
<title>access&#45;&gt;result</title>
<path fill="none" stroke="#52677d" d="M991.1,-90C999.79,-90 1008.78,-90 1017.72,-90"/>
<polygon fill="#52677d" stroke="#52677d" points="1017.76,-93.5 1027.76,-90 1017.76,-86.5 1017.76,-93.5"/>
</g>
</g>
</svg>
